<?xml version="1.0" encoding="utf-8"?>
<!-- Generator: Adobe Illustrator 18.1.1, SVG Export Plug-In . SVG Version: 6.00 Build 0)  -->
<!DOCTYPE svg PUBLIC "-//W3C//DTD SVG 1.1//EN" "http://www.w3.org/Graphics/SVG/1.1/DTD/svg11.dtd">
<svg version="1.1" id="Artwork" xmlns="http://www.w3.org/2000/svg" xmlns:xlink="http://www.w3.org/1999/xlink" x="0px" y="0px"
	 viewBox="27 5 168 85"  xml:space="preserve">
<g>
	<polygon points="47.1,48.5 39,56.6 39,56.6 27.7,56.6 47.1,37.2 	"/>
	<polygon points="56,32.4 47.9,40.5 47.9,56.6 47.9,56.6 56,56.6 	"/>
	<polygon points="56,32.4 56,28.5 52,32.4 	"/>
</g>
<g enable-background="new    ">
	<path d="M80.1,38.7h1.2l4.9,11.7H85l-1.5-3.6H78l-1.5,3.6h-1.2L80.1,38.7z M79.6,42.7l-1.2,3h4.7l-1.2-3l-1.1-2.9L79.6,42.7z"/>
	<path d="M99.6,49.4h6.6v1h-7.7V38.8h1.1V49.4z"/>
	<path d="M118.4,50.3V38.8h4.2c3.7,0,5.7,1.8,5.7,5.8s-2,5.8-5.7,5.8H118.4z M122.6,49.4c3.3,0,4.5-1.9,4.5-4.8
		c0-2.9-1.2-4.8-4.5-4.8h-3v9.6H122.6z"/>
	<path d="M142.2,50.3H141V38.8h4.8c1.9,0,3.9,0.6,3.9,3.2c0,2.2-1.4,3-2.9,3.2l3.4,5.2h-1.4l-3.3-5.1h-3.5V50.3z M146,44.2
		c1.1,0,2.5-0.1,2.5-2.2c0-2.1-1.5-2.2-2.5-2.2h-3.9v4.4H146z"/>
	<path d="M162.6,38.8l2.6,3.6l1.5,2.1l1.5-2.1l2.6-3.6h1.3l-4.8,6.6v4.9h-1.1v-4.9l-4.8-6.6H162.6z"/>
	<path d="M186.8,42.7l-1.5-2.1l0.1,3.9v5.8h-1.1V38.8h1l5.6,7.6l1.5,2.1l-0.1-3.9v-5.8h1.1v11.5h-1L186.8,42.7z"/>
</g>
</svg>
