<svg width="68" height="155" viewBox="0 0 68 155" fill="none" xmlns="http://www.w3.org/2000/svg">
<path d="M27.5282 122.047H39.7268V148.898C39.7268 151.594 37.5522 153.78 34.8697 153.78H32.3853C29.7028 153.78 27.5282 151.594 27.5282 148.898V122.047Z" fill="#FFC99D"/>
<path d="M56.2214 0H10.9286C4.89289 0 0 4.91782 0 10.9843V111.063C0 117.129 4.89289 122.047 10.9286 122.047H56.2214C62.2571 122.047 67.15 117.129 67.15 111.063V10.9843C67.15 4.91782 62.2571 0 56.2214 0Z" fill="#00BBFF"/>
<path d="M10.6857 0H57.4357C62.8008 0 67.15 4.37139 67.15 9.76378V34.2115C67.15 39.6038 62.8008 43.9752 57.4357 43.9752H9.71429C4.34923 43.9752 0 39.6038 0 34.2115V10.7402C0 4.80853 4.78416 0 10.6857 0Z" fill="#FFBE00"/>
<mask id="mask0" mask-type="alpha" maskUnits="userSpaceOnUse" x="0" y="7" width="68" height="45">
<path d="M67.15 7.33325H0V51.2703H67.15V7.33325Z" fill="white"/>
</mask>
<g mask="url(#mask0)">
<path fill-rule="evenodd" clip-rule="evenodd" d="M0 50.6542C9.71429 38.0465 20.6429 33.7768 32.7857 37.845C44.9286 41.9133 56.3912 39.6816 67.1736 31.1501V10.9946C56.3912 19.1311 44.9286 21.1652 32.7857 17.097C20.6429 13.0287 9.71429 17.5095 0 30.5394V50.6542Z" fill="#FF6600"/>
</g>
<mask id="mask1" mask-type="alpha" maskUnits="userSpaceOnUse" x="0" y="26" width="68" height="45">
<path d="M67.15 26.8503H0V70.7873H67.15V26.8503Z" fill="white"/>
</mask>
<g mask="url(#mask1)">
<path fill-rule="evenodd" clip-rule="evenodd" d="M0 70.1713C9.71429 57.5636 20.6429 53.2939 32.7857 57.3621C44.9286 61.4304 56.3912 59.1987 67.1736 50.6672V30.5117C56.3912 38.6482 44.9286 40.6823 32.7857 36.6141C20.6429 32.5458 9.71429 37.0266 0 50.0565V70.1713Z" fill="#FF0046"/>
</g>
<mask id="mask2" mask-type="alpha" maskUnits="userSpaceOnUse" x="0" y="46" width="68" height="45">
<path d="M67.15 46.3779H0V90.3149H67.15V46.3779Z" fill="white"/>
</mask>
<g mask="url(#mask2)">
<path fill-rule="evenodd" clip-rule="evenodd" d="M0 89.6989C9.71429 77.0912 20.6429 72.8215 32.7857 76.8897C44.9286 80.9579 56.3912 78.7263 67.1736 70.1948V50.0393C56.3912 58.1758 44.9286 60.2099 32.7857 56.1417C20.6429 52.0734 9.71429 56.5542 0 69.5841V89.6989Z" fill="#0626B8"/>
</g>
<mask id="mask3" mask-type="alpha" maskUnits="userSpaceOnUse" x="0" y="65" width="68" height="45">
<path d="M67.15 65.9055H0V109.843H67.15V65.9055Z" fill="white"/>
</mask>
<g mask="url(#mask3)">
<path fill-rule="evenodd" clip-rule="evenodd" d="M0 109.226C9.71429 96.6188 20.6429 92.349 32.7857 96.4173C44.9286 100.486 56.3912 98.2539 67.1736 89.7224V69.5669C56.3912 77.7034 44.9286 79.7375 32.7857 75.6693C20.6429 71.601 9.71429 76.0818 0 89.1116V109.226Z" fill="#0071FF"/>
</g>
</svg>
